<svg width="204" height="73" viewBox="0 0 204 73" fill="none" xmlns="http://www.w3.org/2000/svg">
<path d="M8.896 17.008C10.7733 17.008 12.2453 17.5733 13.312 18.704C14.3787 19.8347 14.912 21.6373 14.912 24.112H4.128L4.096 23.504H11.2C11.2427 22.4587 11.1787 21.4987 11.008 20.624C10.8373 19.728 10.56 19.0133 10.176 18.48C9.81333 17.9467 9.33333 17.68 8.736 17.68C7.92533 17.68 7.22133 18.16 6.624 19.12C6.02667 20.0587 5.65333 21.6053 5.504 23.76L5.632 23.952C5.58933 24.2293 5.55733 24.528 5.536 24.848C5.536 25.168 5.536 25.488 5.536 25.808C5.536 27.28 5.74933 28.496 6.176 29.456C6.60267 30.416 7.15733 31.12 7.84 31.568C8.52267 32.016 9.22667 32.24 9.952 32.24C10.4427 32.24 10.944 32.1653 11.456 32.016C11.968 31.8667 12.4693 31.5893 12.96 31.184C13.4507 30.7787 13.8987 30.2027 14.304 29.456L14.912 29.712C14.6773 30.4587 14.2827 31.2053 13.728 31.952C13.1947 32.6773 12.5013 33.2747 11.648 33.744C10.7947 34.2133 9.792 34.448 8.64 34.448C7.18933 34.448 5.90933 34.128 4.8 33.488C3.69067 32.848 2.82667 31.8987 2.208 30.64C1.58933 29.36 1.28 27.8027 1.28 25.968C1.28 24.0267 1.6 22.3947 2.24 21.072C2.90133 19.7493 3.808 18.7467 4.96 18.064C6.112 17.36 7.424 17.008 8.896 17.008ZM24.2262 17.456V18.128C23.7142 18.128 23.2769 18.1707 22.9142 18.256C22.5516 18.32 22.3062 18.4907 22.1782 18.768C22.0716 19.0453 22.1249 19.536 22.3383 20.24L25.4742 29.776L25.1223 30.032L29.1863 17.392L29.8583 17.712L24.6423 34.096C24.3863 34.0747 24.1196 34.064 23.8422 34.064C23.5862 34.064 23.3303 34.0747 23.0743 34.096L17.9542 19.92C17.6129 19.0667 17.2716 18.5547 16.9302 18.384C16.6102 18.2133 16.3329 18.128 16.0982 18.128V17.456C16.6956 17.52 17.3142 17.5733 17.9542 17.616C18.5942 17.6373 19.2982 17.648 20.0662 17.648C20.7276 17.648 21.4209 17.6267 22.1462 17.584C22.8929 17.5413 23.5862 17.4987 24.2262 17.456ZM41.2183 17.456V18.128C40.8129 18.2133 40.4183 18.4373 40.0343 18.8C39.6716 19.1413 39.3409 19.7813 39.0423 20.72L34.6583 34.096C34.4023 34.0747 34.1463 34.064 33.8903 34.064C33.6343 34.064 33.3676 34.0747 33.0903 34.096L28.3863 21.52L29.2183 17.392C29.5169 17.4133 29.8156 17.424 30.1143 17.424C30.4129 17.424 30.7116 17.4133 31.0103 17.392L35.5863 30.416L35.2663 30.256L37.7623 22.512C38.0823 21.488 38.1996 20.6667 38.1143 20.048C38.0503 19.4293 37.8049 18.9707 37.3783 18.672C36.9729 18.352 36.4076 18.1707 35.6823 18.128V17.456C36.0236 17.4773 36.3756 17.4987 36.7383 17.52C37.1009 17.5413 37.4529 17.5627 37.7943 17.584C38.1356 17.584 38.4556 17.584 38.7543 17.584C39.2023 17.584 39.6503 17.5733 40.0983 17.552C40.5463 17.5307 40.9196 17.4987 41.2183 17.456ZM50.036 17.008C51.9133 17.008 53.3853 17.5733 54.452 18.704C55.5187 19.8347 56.052 21.6373 56.052 24.112H45.268L45.236 23.504H52.34C52.3827 22.4587 52.3187 21.4987 52.148 20.624C51.9773 19.728 51.7 19.0133 51.316 18.48C50.9533 17.9467 50.4733 17.68 49.876 17.68C49.0653 17.68 48.3613 18.16 47.764 19.12C47.1667 20.0587 46.7933 21.6053 46.644 23.76L46.772 23.952C46.7293 24.2293 46.6973 24.528 46.676 24.848C46.676 25.168 46.676 25.488 46.676 25.808C46.676 27.28 46.8893 28.496 47.316 29.456C47.7427 30.416 48.2973 31.12 48.98 31.568C49.6627 32.016 50.3667 32.24 51.092 32.24C51.5827 32.24 52.084 32.1653 52.596 32.016C53.108 31.8667 53.6093 31.5893 54.1 31.184C54.5907 30.7787 55.0387 30.2027 55.444 29.456L56.052 29.712C55.8173 30.4587 55.4227 31.2053 54.868 31.952C54.3347 32.6773 53.6413 33.2747 52.788 33.744C51.9347 34.2133 50.932 34.448 49.78 34.448C48.3293 34.448 47.0493 34.128 45.94 33.488C44.8307 32.848 43.9667 31.8987 43.348 30.64C42.7293 29.36 42.42 27.8027 42.42 25.968C42.42 24.0267 42.74 22.3947 43.38 21.072C44.0413 19.7493 44.948 18.7467 46.1 18.064C47.252 17.36 48.564 17.008 50.036 17.008ZM64.4642 8.944V31.024C64.4642 31.92 64.6242 32.528 64.9442 32.848C65.2856 33.168 65.8509 33.328 66.6402 33.328V34C66.2562 33.9787 65.6696 33.9573 64.8802 33.936C64.1122 33.8933 63.3229 33.872 62.5122 33.872C61.7229 33.872 60.9122 33.8933 60.0802 33.936C59.2696 33.9573 58.6616 33.9787 58.2562 34V33.328C59.0456 33.328 59.6002 33.168 59.9202 32.848C60.2616 32.528 60.4322 31.92 60.4322 31.024V12.784C60.4322 11.824 60.2829 11.12 59.9842 10.672C59.6856 10.2027 59.1096 9.968 58.2562 9.968V9.296C58.9389 9.36 59.6002 9.392 60.2402 9.392C61.0509 9.392 61.8082 9.36 62.5122 9.296C63.2162 9.21067 63.8669 9.09333 64.4642 8.944ZM72.4237 9.296C73.1917 9.296 73.8211 9.50933 74.3117 9.936C74.8024 10.3627 75.0477 10.928 75.0477 11.632C75.0477 12.336 74.8024 12.9013 74.3117 13.328C73.8211 13.7547 73.1917 13.968 72.4237 13.968C71.6557 13.968 71.0264 13.7547 70.5357 13.328C70.0451 12.9013 69.7997 12.336 69.7997 11.632C69.7997 10.928 70.0451 10.3627 70.5357 9.936C71.0264 9.50933 71.6557 9.296 72.4237 9.296ZM74.6637 17.104V31.024C74.6637 31.92 74.8237 32.528 75.1437 32.848C75.4851 33.168 76.0504 33.328 76.8397 33.328V34C76.4557 33.9787 75.8691 33.9573 75.0797 33.936C74.2904 33.8933 73.4904 33.872 72.6797 33.872C71.8904 33.872 71.0904 33.8933 70.2797 33.936C69.4691 33.9573 68.8611 33.9787 68.4557 34V33.328C69.2451 33.328 69.7997 33.168 70.1197 32.848C70.4611 32.528 70.6317 31.92 70.6317 31.024V20.976C70.6317 19.9947 70.4717 19.28 70.1517 18.832C69.8531 18.3627 69.2877 18.128 68.4557 18.128V17.456C69.1384 17.52 69.7997 17.552 70.4397 17.552C71.2291 17.552 71.9757 17.52 72.6797 17.456C73.4051 17.3707 74.0664 17.2533 74.6637 17.104ZM90.1075 17.008C91.0035 17.008 91.7182 17.1253 92.2515 17.36C92.8062 17.5947 93.2542 17.8933 93.5955 18.256C93.9795 18.6613 94.2462 19.184 94.3955 19.824C94.5662 20.464 94.6515 21.328 94.6515 22.416V31.024C94.6515 31.92 94.8115 32.528 95.1315 32.848C95.4728 33.168 96.0382 33.328 96.8275 33.328V34C96.4435 33.9787 95.8462 33.9573 95.0355 33.936C94.2462 33.8933 93.4782 33.872 92.7315 33.872C91.9422 33.872 91.1742 33.8933 90.4275 33.936C89.6808 33.9573 89.1262 33.9787 88.7635 34V33.328C89.4462 33.328 89.9262 33.168 90.2035 32.848C90.4808 32.528 90.6195 31.92 90.6195 31.024V21.328C90.6195 20.752 90.5662 20.24 90.4595 19.792C90.3528 19.3227 90.1395 18.96 89.8195 18.704C89.4995 18.4267 89.0408 18.288 88.4435 18.288C87.7395 18.288 87.1102 18.48 86.5555 18.864C86.0222 19.248 85.5955 19.7813 85.2755 20.464C84.9768 21.1253 84.8275 21.872 84.8275 22.704V31.024C84.8275 31.92 84.9662 32.528 85.2435 32.848C85.5208 33.168 86.0008 33.328 86.6835 33.328V34C86.3208 33.9787 85.7768 33.9573 85.0515 33.936C84.3262 33.8933 83.5902 33.872 82.8435 33.872C82.0542 33.872 81.2542 33.8933 80.4435 33.936C79.6328 33.9573 79.0248 33.9787 78.6195 34V33.328C79.4088 33.328 79.9635 33.168 80.2835 32.848C80.6248 32.528 80.7955 31.92 80.7955 31.024V20.944C80.7955 19.984 80.6355 19.28 80.3155 18.832C80.0168 18.3627 79.4515 18.128 78.6195 18.128V17.456C79.3022 17.52 79.9635 17.552 80.6035 17.552C81.3928 17.552 82.1395 17.52 82.8435 17.456C83.5688 17.3707 84.2302 17.2533 84.8275 17.104V20.304C85.3608 19.088 86.0968 18.2347 87.0355 17.744C87.9742 17.2533 88.9982 17.008 90.1075 17.008ZM102.856 34.224C101.939 34.224 101.16 34.0533 100.52 33.712C99.8802 33.3493 99.4002 32.8693 99.0802 32.272C98.7602 31.6533 98.6002 30.9707 98.6002 30.224C98.6002 29.3067 98.8136 28.56 99.2402 27.984C99.6669 27.3867 100.211 26.9173 100.872 26.576C101.555 26.2133 102.27 25.9147 103.016 25.68C103.763 25.424 104.467 25.1893 105.128 24.976C105.79 24.7413 106.334 24.4747 106.76 24.176C107.187 23.8773 107.4 23.4827 107.4 22.992V20.656C107.4 19.9733 107.294 19.4187 107.08 18.992C106.888 18.544 106.59 18.2133 106.184 18C105.8 17.7653 105.31 17.648 104.712 17.648C104.264 17.648 103.795 17.712 103.304 17.84C102.814 17.968 102.408 18.2133 102.088 18.576C102.643 18.7253 103.07 19.0027 103.368 19.408C103.688 19.8133 103.848 20.304 103.848 20.88C103.848 21.5413 103.624 22.064 103.176 22.448C102.75 22.8107 102.206 22.992 101.544 22.992C100.84 22.992 100.307 22.768 99.9442 22.32C99.5816 21.872 99.4002 21.3493 99.4002 20.752C99.4002 20.1547 99.5496 19.664 99.8482 19.28C100.147 18.8747 100.563 18.512 101.096 18.192C101.63 17.8293 102.312 17.5413 103.144 17.328C103.976 17.1147 104.883 17.008 105.864 17.008C106.803 17.008 107.635 17.1147 108.36 17.328C109.086 17.52 109.704 17.872 110.216 18.384C110.728 18.8747 111.059 19.4827 111.208 20.208C111.358 20.9333 111.432 21.8187 111.432 22.864V31.632C111.432 32.1653 111.496 32.5493 111.624 32.784C111.752 32.9973 111.955 33.104 112.232 33.104C112.446 33.104 112.648 33.0507 112.84 32.944C113.032 32.8373 113.246 32.688 113.48 32.496L113.832 33.04C113.363 33.4027 112.872 33.6907 112.36 33.904C111.848 34.1173 111.23 34.224 110.504 34.224C109.758 34.224 109.16 34.1173 108.712 33.904C108.286 33.6907 107.966 33.3813 107.752 32.976C107.56 32.5707 107.454 32.0907 107.432 31.536C106.92 32.3893 106.291 33.0507 105.544 33.52C104.798 33.9893 103.902 34.224 102.856 34.224ZM104.776 32.432C105.288 32.432 105.758 32.2933 106.184 32.016C106.632 31.7387 107.038 31.3227 107.4 30.768V24.304C107.187 24.624 106.878 24.912 106.472 25.168C106.088 25.424 105.672 25.68 105.224 25.936C104.776 26.192 104.35 26.4907 103.944 26.832C103.56 27.152 103.23 27.5573 102.952 28.048C102.696 28.5173 102.568 29.1253 102.568 29.872C102.568 30.704 102.771 31.344 103.176 31.792C103.582 32.2187 104.115 32.432 104.776 32.432Z" fill="#08006E"/>
<path d="M46.816 39.944V62.024C46.816 62.92 46.9653 63.528 47.264 63.848C47.5627 64.168 48.0747 64.328 48.8 64.328V65C48.4373 64.9787 47.8827 64.9573 47.136 64.936C46.3893 64.8933 45.632 64.872 44.864 64.872C44.0747 64.872 43.264 64.8933 42.432 64.936C41.6213 64.9573 41.0133 64.9787 40.608 65V64.328C41.3973 64.328 41.952 64.168 42.272 63.848C42.6133 63.528 42.784 62.92 42.784 62.024V43.784C42.784 42.824 42.624 42.12 42.304 41.672C42.0053 41.2027 41.44 40.968 40.608 40.968V40.296C41.2907 40.36 41.952 40.392 42.592 40.392C43.4027 40.392 44.16 40.36 44.864 40.296C45.568 40.2107 46.2187 40.0933 46.816 39.944ZM57.184 48.456V49.096C56.544 49.224 55.9253 49.4693 55.328 49.832C54.7307 50.1733 54.144 50.6533 53.568 51.272L50.4 54.568L50.752 53.864L56.384 62.664C56.6827 63.0907 56.96 63.4533 57.216 63.752C57.4933 64.0293 57.8347 64.2213 58.24 64.328V65C57.9627 64.9787 57.5253 64.9573 56.928 64.936C56.3307 64.8933 55.7333 64.872 55.136 64.872C54.4107 64.872 53.664 64.8933 52.896 64.936C52.1493 64.9573 51.584 64.9787 51.2 65V64.328C51.6267 64.328 51.9147 64.232 52.064 64.04C52.2347 63.8267 52.2133 63.56 52 63.24L48.672 57.64C48.3733 57.1707 48.0853 56.872 47.808 56.744C47.5307 56.5947 47.1573 56.52 46.688 56.52V55.88C47.2213 55.8373 47.6587 55.7413 48 55.592C48.3627 55.4427 48.704 55.208 49.024 54.888L51.424 52.488C52.128 51.784 52.48 51.1867 52.48 50.696C52.5013 50.2053 52.2773 49.832 51.808 49.576C51.36 49.2987 50.7733 49.1387 50.048 49.096V48.456C50.624 48.4773 51.264 48.5093 51.968 48.552C52.672 48.5733 53.2693 48.584 53.76 48.584C54.144 48.584 54.5493 48.584 54.976 48.584C55.424 48.5627 55.84 48.5413 56.224 48.52C56.6293 48.4987 56.9493 48.4773 57.184 48.456ZM63.6275 65.224C62.7102 65.224 61.9315 65.0533 61.2915 64.712C60.6515 64.3493 60.1715 63.8693 59.8515 63.272C59.5315 62.6533 59.3715 61.9707 59.3715 61.224C59.3715 60.3067 59.5848 59.56 60.0115 58.984C60.4382 58.3867 60.9822 57.9173 61.6435 57.576C62.3262 57.2133 63.0408 56.9147 63.7875 56.68C64.5342 56.424 65.2382 56.1893 65.8995 55.976C66.5608 55.7413 67.1048 55.4747 67.5315 55.176C67.9582 54.8773 68.1715 54.4827 68.1715 53.992V51.656C68.1715 50.9733 68.0648 50.4187 67.8515 49.992C67.6595 49.544 67.3608 49.2133 66.9555 49C66.5715 48.7653 66.0808 48.648 65.4835 48.648C65.0355 48.648 64.5662 48.712 64.0755 48.84C63.5848 48.968 63.1795 49.2133 62.8595 49.576C63.4142 49.7253 63.8408 50.0027 64.1395 50.408C64.4595 50.8133 64.6195 51.304 64.6195 51.88C64.6195 52.5413 64.3955 53.064 63.9475 53.448C63.5208 53.8107 62.9768 53.992 62.3155 53.992C61.6115 53.992 61.0782 53.768 60.7155 53.32C60.3528 52.872 60.1715 52.3493 60.1715 51.752C60.1715 51.1547 60.3208 50.664 60.6195 50.28C60.9182 49.8747 61.3342 49.512 61.8675 49.192C62.4008 48.8293 63.0835 48.5413 63.9155 48.328C64.7475 48.1147 65.6542 48.008 66.6355 48.008C67.5742 48.008 68.4062 48.1147 69.1315 48.328C69.8568 48.52 70.4755 48.872 70.9875 49.384C71.4995 49.8747 71.8302 50.4827 71.9795 51.208C72.1288 51.9333 72.2035 52.8187 72.2035 53.864V62.632C72.2035 63.1653 72.2675 63.5493 72.3955 63.784C72.5235 63.9973 72.7262 64.104 73.0035 64.104C73.2168 64.104 73.4195 64.0507 73.6115 63.944C73.8035 63.8373 74.0168 63.688 74.2515 63.496L74.6035 64.04C74.1342 64.4027 73.6435 64.6907 73.1315 64.904C72.6195 65.1173 72.0008 65.224 71.2755 65.224C70.5288 65.224 69.9315 65.1173 69.4835 64.904C69.0568 64.6907 68.7368 64.3813 68.5235 63.976C68.3315 63.5707 68.2248 63.0907 68.2035 62.536C67.6915 63.3893 67.0622 64.0507 66.3155 64.52C65.5688 64.9893 64.6728 65.224 63.6275 65.224ZM65.5475 63.432C66.0595 63.432 66.5288 63.2933 66.9555 63.016C67.4035 62.7387 67.8088 62.3227 68.1715 61.768V55.304C67.9582 55.624 67.6488 55.912 67.2435 56.168C66.8595 56.424 66.4435 56.68 65.9955 56.936C65.5475 57.192 65.1208 57.4907 64.7155 57.832C64.3315 58.152 64.0008 58.5573 63.7235 59.048C63.4675 59.5173 63.3395 60.1253 63.3395 60.872C63.3395 61.704 63.5422 62.344 63.9475 62.792C64.3528 63.2187 64.8862 63.432 65.5475 63.432ZM86.3073 48.008C86.9686 48.008 87.5126 48.1467 87.9392 48.424C88.3872 48.7013 88.7179 49.0533 88.9313 49.48C89.1446 49.9067 89.2513 50.3547 89.2513 50.824C89.2513 51.528 89.0379 52.1147 88.6112 52.584C88.2059 53.0533 87.6619 53.288 86.9792 53.288C86.3392 53.288 85.8166 53.1173 85.4113 52.776C85.0059 52.4347 84.8033 51.9653 84.8033 51.368C84.8033 50.8347 84.9313 50.3867 85.1873 50.024C85.4646 49.6613 85.7739 49.3733 86.1153 49.16C85.8806 49.032 85.6139 48.9893 85.3153 49.032C84.8032 49.0747 84.3339 49.256 83.9073 49.576C83.4806 49.896 83.1179 50.2907 82.8193 50.76C82.5206 51.2293 82.2859 51.7307 82.1153 52.264C81.9659 52.7973 81.8913 53.3093 81.8913 53.8V61.704C81.8913 62.7493 82.1579 63.4533 82.6912 63.816C83.2246 64.1573 84.0033 64.328 85.0273 64.328V65C84.5366 64.9787 83.8219 64.9573 82.8833 64.936C81.9659 64.8933 81.0059 64.872 80.0033 64.872C79.1713 64.872 78.3392 64.8933 77.5072 64.936C76.6966 64.9573 76.0886 64.9787 75.6832 65V64.328C76.4726 64.328 77.0272 64.168 77.3472 63.848C77.6886 63.528 77.8592 62.92 77.8592 62.024V51.944C77.8592 50.984 77.6992 50.28 77.3792 49.832C77.0806 49.3627 76.5152 49.128 75.6832 49.128V48.456C76.3659 48.52 77.0272 48.552 77.6672 48.552C78.4566 48.552 79.2032 48.52 79.9072 48.456C80.6326 48.3707 81.2939 48.2533 81.8913 48.104V51.432C82.1473 50.8347 82.4779 50.28 82.8833 49.768C83.3099 49.256 83.8113 48.84 84.3872 48.52C84.9846 48.1787 85.6246 48.008 86.3073 48.008ZM95.7968 39.944V62.024C95.7968 62.92 95.9568 63.528 96.2768 63.848C96.6181 64.168 97.1834 64.328 97.9727 64.328V65C97.5887 64.9787 97.0021 64.9573 96.2127 64.936C95.4447 64.8933 94.6554 64.872 93.8447 64.872C93.0554 64.872 92.2447 64.8933 91.4127 64.936C90.6021 64.9573 89.9941 64.9787 89.5887 65V64.328C90.3781 64.328 90.9327 64.168 91.2527 63.848C91.5941 63.528 91.7647 62.92 91.7647 62.024V43.784C91.7647 42.824 91.6154 42.12 91.3167 41.672C91.0181 41.2027 90.4421 40.968 89.5887 40.968V40.296C90.2714 40.36 90.9327 40.392 91.5727 40.392C92.3834 40.392 93.1407 40.36 93.8447 40.296C94.5487 40.2107 95.1994 40.0933 95.7968 39.944ZM105.74 48.008C106.636 48.008 107.404 48.136 108.044 48.392C108.684 48.648 109.154 48.872 109.452 49.064C110.178 49.5973 110.615 49.256 110.764 48.04H111.468C111.426 48.6587 111.394 49.3947 111.372 50.248C111.351 51.08 111.34 52.2 111.34 53.608H110.636C110.53 52.8187 110.327 52.0507 110.028 51.304C109.73 50.5573 109.292 49.9387 108.716 49.448C108.14 48.936 107.383 48.68 106.444 48.68C105.783 48.68 105.228 48.872 104.78 49.256C104.354 49.64 104.14 50.184 104.14 50.888C104.14 51.528 104.332 52.0933 104.716 52.584C105.1 53.0533 105.591 53.5013 106.188 53.928C106.807 54.3333 107.447 54.7813 108.108 55.272C108.876 55.784 109.559 56.3067 110.156 56.84C110.754 57.352 111.234 57.928 111.596 58.568C111.959 59.1867 112.14 59.9227 112.14 60.776C112.14 61.7573 111.863 62.6 111.308 63.304C110.775 63.9867 110.06 64.52 109.164 64.904C108.29 65.2667 107.319 65.448 106.252 65.448C105.676 65.448 105.154 65.3947 104.684 65.288C104.215 65.1813 103.799 65.0427 103.436 64.872C103.159 64.7227 102.903 64.584 102.668 64.456C102.455 64.328 102.231 64.2213 101.996 64.136C101.783 64.0293 101.591 64.072 101.42 64.264C101.271 64.456 101.154 64.776 101.068 65.224H100.364C100.407 64.5413 100.439 63.7093 100.46 62.728C100.482 61.7467 100.492 60.4453 100.492 58.824H101.196C101.346 59.9973 101.57 61.032 101.868 61.928C102.188 62.8027 102.647 63.496 103.244 64.008C103.842 64.4987 104.61 64.744 105.548 64.744C105.954 64.744 106.338 64.6587 106.7 64.488C107.084 64.3173 107.394 64.0507 107.628 63.688C107.884 63.3253 108.012 62.8347 108.012 62.216C108.012 61.2773 107.692 60.4987 107.052 59.88C106.412 59.2613 105.612 58.6 104.652 57.896C103.927 57.3627 103.244 56.84 102.604 56.328C101.986 55.816 101.474 55.24 101.068 54.6C100.684 53.96 100.492 53.2027 100.492 52.328C100.492 51.368 100.738 50.5787 101.228 49.96C101.719 49.32 102.359 48.84 103.148 48.52C103.959 48.1787 104.823 48.008 105.74 48.008ZM120.525 48.008C121.421 48.008 122.189 48.136 122.829 48.392C123.469 48.648 123.939 48.872 124.237 49.064C124.963 49.5973 125.4 49.256 125.549 48.04H126.253C126.211 48.6587 126.179 49.3947 126.157 50.248C126.136 51.08 126.125 52.2 126.125 53.608H125.421C125.315 52.8187 125.112 52.0507 124.813 51.304C124.515 50.5573 124.077 49.9387 123.501 49.448C122.925 48.936 122.168 48.68 121.229 48.68C120.568 48.68 120.013 48.872 119.565 49.256C119.139 49.64 118.925 50.184 118.925 50.888C118.925 51.528 119.117 52.0933 119.501 52.584C119.885 53.0533 120.376 53.5013 120.973 53.928C121.592 54.3333 122.232 54.7813 122.893 55.272C123.661 55.784 124.344 56.3067 124.941 56.84C125.539 57.352 126.019 57.928 126.381 58.568C126.744 59.1867 126.925 59.9227 126.925 60.776C126.925 61.7573 126.648 62.6 126.093 63.304C125.56 63.9867 124.845 64.52 123.949 64.904C123.075 65.2667 122.104 65.448 121.037 65.448C120.461 65.448 119.939 65.3947 119.469 65.288C119 65.1813 118.584 65.0427 118.221 64.872C117.944 64.7227 117.688 64.584 117.453 64.456C117.24 64.328 117.016 64.2213 116.781 64.136C116.568 64.0293 116.376 64.072 116.205 64.264C116.056 64.456 115.939 64.776 115.853 65.224H115.149C115.192 64.5413 115.224 63.7093 115.245 62.728C115.267 61.7467 115.277 60.4453 115.277 58.824H115.981C116.131 59.9973 116.355 61.032 116.653 61.928C116.973 62.8027 117.432 63.496 118.029 64.008C118.627 64.4987 119.395 64.744 120.333 64.744C120.739 64.744 121.123 64.6587 121.485 64.488C121.869 64.3173 122.179 64.0507 122.413 63.688C122.669 63.3253 122.797 62.8347 122.797 62.216C122.797 61.2773 122.477 60.4987 121.837 59.88C121.197 59.2613 120.397 58.6 119.437 57.896C118.712 57.3627 118.029 56.84 117.389 56.328C116.771 55.816 116.259 55.24 115.853 54.6C115.469 53.96 115.277 53.2027 115.277 52.328C115.277 51.368 115.523 50.5787 116.013 49.96C116.504 49.32 117.144 48.84 117.933 48.52C118.744 48.1787 119.608 48.008 120.525 48.008ZM137.326 48.008C138.798 48.008 140.1 48.3067 141.23 48.904C142.382 49.48 143.289 50.408 143.95 51.688C144.633 52.968 144.974 54.6533 144.974 56.744C144.974 58.8347 144.633 60.52 143.95 61.8C143.289 63.08 142.382 64.008 141.23 64.584C140.1 65.16 138.798 65.448 137.326 65.448C135.854 65.448 134.542 65.16 133.39 64.584C132.238 64.008 131.332 63.08 130.67 61.8C130.009 60.52 129.678 58.8347 129.678 56.744C129.678 54.6533 130.009 52.968 130.67 51.688C131.332 50.408 132.238 49.48 133.39 48.904C134.542 48.3067 135.854 48.008 137.326 48.008ZM137.326 48.648C136.324 48.648 135.502 49.288 134.862 50.568C134.244 51.8267 133.934 53.8853 133.934 56.744C133.934 59.6027 134.244 61.6613 134.862 62.92C135.502 64.1787 136.324 64.808 137.326 64.808C138.308 64.808 139.118 64.1787 139.758 62.92C140.398 61.6613 140.718 59.6027 140.718 56.744C140.718 53.8853 140.398 51.8267 139.758 50.568C139.118 49.288 138.308 48.648 137.326 48.648ZM158.721 48.008C159.617 48.008 160.332 48.1253 160.865 48.36C161.42 48.5947 161.868 48.8933 162.209 49.256C162.593 49.6613 162.86 50.184 163.009 50.824C163.18 51.464 163.265 52.328 163.265 53.416V62.024C163.265 62.92 163.425 63.528 163.745 63.848C164.087 64.168 164.652 64.328 165.441 64.328V65C165.057 64.9787 164.46 64.9573 163.649 64.936C162.86 64.8933 162.092 64.872 161.345 64.872C160.556 64.872 159.788 64.8933 159.041 64.936C158.295 64.9573 157.74 64.9787 157.377 65V64.328C158.06 64.328 158.54 64.168 158.817 63.848C159.095 63.528 159.233 62.92 159.233 62.024V52.328C159.233 51.752 159.18 51.24 159.073 50.792C158.967 50.3227 158.753 49.96 158.433 49.704C158.113 49.4267 157.655 49.288 157.057 49.288C156.353 49.288 155.724 49.48 155.169 49.864C154.636 50.248 154.209 50.7813 153.889 51.464C153.591 52.1253 153.441 52.872 153.441 53.704V62.024C153.441 62.92 153.58 63.528 153.857 63.848C154.135 64.168 154.615 64.328 155.297 64.328V65C154.935 64.9787 154.391 64.9573 153.665 64.936C152.94 64.8933 152.204 64.872 151.457 64.872C150.668 64.872 149.868 64.8933 149.057 64.936C148.247 64.9573 147.639 64.9787 147.233 65V64.328C148.023 64.328 148.577 64.168 148.897 63.848C149.239 63.528 149.409 62.92 149.409 62.024V51.944C149.409 50.984 149.249 50.28 148.929 49.832C148.631 49.3627 148.065 49.128 147.233 49.128V48.456C147.916 48.52 148.577 48.552 149.217 48.552C150.007 48.552 150.753 48.52 151.457 48.456C152.183 48.3707 152.844 48.2533 153.441 48.104V51.304C153.975 50.088 154.711 49.2347 155.649 48.744C156.588 48.2533 157.612 48.008 158.721 48.008Z" fill="#1E1E1E"/>
</svg>
