<svg width="455" height="276" viewBox="0 0 455 276" fill="none" xmlns="http://www.w3.org/2000/svg">
<path d="M0 4C0 1.79086 1.79086 0 4 0H451C453.209 0 455 1.79086 455 4V138H0V4Z" fill="#08006E"/>
<path d="M0 272C0 274.209 1.79086 276 4 276H451C453.209 276 455 274.209 455 272V138H0V272Z" fill="#B5777B"/>
<path fill-rule="evenodd" clip-rule="evenodd" d="M333 138C333 196.542 285.542 244 227 244C168.458 244 121 196.542 121 138H333Z" fill="#08006E"/>
<path d="M227 32C285.542 32 333 79.4578 333 138H121C121 79.4578 168.458 32 227 32Z" fill="#B5777B"/>
<path d="M197.545 117.909L192.705 131H190.659L185.818 117.909H188L191.614 128.341H191.75L195.364 117.909H197.545ZM203.894 131.307C203.065 131.307 202.312 131.151 201.636 130.838C200.959 130.52 200.423 130.062 200.025 129.466C199.627 128.864 199.428 128.136 199.428 127.284C199.428 126.534 199.576 125.926 199.871 125.46C200.167 124.989 200.562 124.619 201.056 124.352C201.55 124.085 202.096 123.886 202.692 123.756C203.295 123.619 203.9 123.511 204.508 123.432C205.303 123.33 205.948 123.253 206.442 123.202C206.942 123.145 207.306 123.051 207.533 122.92C207.766 122.79 207.883 122.562 207.883 122.239V122.17C207.883 121.33 207.653 120.676 207.192 120.21C206.738 119.744 206.048 119.511 205.121 119.511C204.161 119.511 203.408 119.722 202.863 120.142C202.317 120.562 201.934 121.011 201.712 121.489L199.803 120.807C200.144 120.011 200.599 119.392 201.167 118.949C201.741 118.5 202.366 118.187 203.042 118.011C203.724 117.83 204.394 117.739 205.053 117.739C205.474 117.739 205.957 117.79 206.502 117.892C207.053 117.989 207.584 118.19 208.096 118.497C208.613 118.804 209.042 119.267 209.383 119.886C209.724 120.506 209.894 121.335 209.894 122.375V131H207.883V129.227H207.78C207.644 129.511 207.417 129.815 207.099 130.139C206.78 130.463 206.357 130.739 205.829 130.966C205.3 131.193 204.655 131.307 203.894 131.307ZM204.201 129.5C204.996 129.5 205.667 129.344 206.212 129.031C206.763 128.719 207.178 128.315 207.457 127.821C207.741 127.327 207.883 126.807 207.883 126.261V124.42C207.798 124.523 207.61 124.616 207.32 124.702C207.036 124.781 206.707 124.852 206.332 124.915C205.962 124.972 205.602 125.023 205.249 125.068C204.903 125.108 204.621 125.142 204.405 125.17C203.883 125.239 203.394 125.349 202.94 125.503C202.491 125.651 202.127 125.875 201.849 126.176C201.576 126.472 201.44 126.875 201.44 127.386C201.44 128.085 201.698 128.614 202.215 128.972C202.738 129.324 203.4 129.5 204.201 129.5ZM213.805 131V117.909H215.748V119.886H215.885C216.123 119.239 216.555 118.713 217.18 118.31C217.805 117.906 218.51 117.705 219.294 117.705C219.442 117.705 219.626 117.707 219.848 117.713C220.069 117.719 220.237 117.727 220.351 117.739V119.784C220.283 119.767 220.126 119.741 219.882 119.707C219.643 119.668 219.391 119.648 219.123 119.648C218.487 119.648 217.919 119.781 217.419 120.048C216.925 120.31 216.533 120.673 216.243 121.139C215.959 121.599 215.817 122.125 215.817 122.716V131H213.805ZM222.975 131V117.909H224.986V131H222.975ZM223.998 115.727C223.606 115.727 223.268 115.594 222.983 115.327C222.705 115.06 222.566 114.739 222.566 114.364C222.566 113.989 222.705 113.668 222.983 113.401C223.268 113.134 223.606 113 223.998 113C224.39 113 224.725 113.134 225.003 113.401C225.287 113.668 225.43 113.989 225.43 114.364C225.43 114.739 225.287 115.06 225.003 115.327C224.725 115.594 224.39 115.727 223.998 115.727ZM234.228 131.273C233.047 131.273 232.01 130.991 231.118 130.429C230.231 129.866 229.538 129.08 229.038 128.068C228.544 127.057 228.297 125.875 228.297 124.523C228.297 123.159 228.544 121.969 229.038 120.952C229.538 119.935 230.231 119.145 231.118 118.582C232.01 118.02 233.047 117.739 234.228 117.739C235.41 117.739 236.444 118.02 237.331 118.582C238.223 119.145 238.916 119.935 239.41 120.952C239.91 121.969 240.16 123.159 240.16 124.523C240.16 125.875 239.91 127.057 239.41 128.068C238.916 129.08 238.223 129.866 237.331 130.429C236.444 130.991 235.41 131.273 234.228 131.273ZM234.228 129.466C235.126 129.466 235.865 129.236 236.444 128.776C237.024 128.315 237.453 127.71 237.731 126.96C238.01 126.21 238.149 125.398 238.149 124.523C238.149 123.648 238.01 122.832 237.731 122.077C237.453 121.321 237.024 120.71 236.444 120.244C235.865 119.778 235.126 119.545 234.228 119.545C233.331 119.545 232.592 119.778 232.013 120.244C231.433 120.71 231.004 121.321 230.726 122.077C230.447 122.832 230.308 123.648 230.308 124.523C230.308 125.398 230.447 126.21 230.726 126.96C231.004 127.71 231.433 128.315 232.013 128.776C232.592 129.236 233.331 129.466 234.228 129.466ZM251.721 125.648V117.909H253.732V131H251.721V128.784H251.584C251.277 129.449 250.8 130.014 250.152 130.48C249.505 130.94 248.687 131.17 247.698 131.17C246.88 131.17 246.152 130.991 245.516 130.634C244.88 130.27 244.38 129.724 244.016 128.997C243.652 128.264 243.471 127.341 243.471 126.227V117.909H245.482V126.091C245.482 127.045 245.749 127.807 246.283 128.375C246.823 128.943 247.51 129.227 248.346 129.227C248.846 129.227 249.354 129.099 249.871 128.844C250.394 128.588 250.831 128.196 251.184 127.668C251.542 127.139 251.721 126.466 251.721 125.648ZM266.929 120.841L265.122 121.352C265.008 121.051 264.841 120.759 264.619 120.474C264.403 120.185 264.108 119.946 263.733 119.759C263.358 119.571 262.878 119.477 262.292 119.477C261.491 119.477 260.824 119.662 260.289 120.031C259.761 120.395 259.497 120.858 259.497 121.42C259.497 121.92 259.679 122.315 260.042 122.605C260.406 122.895 260.974 123.136 261.747 123.33L263.69 123.807C264.86 124.091 265.733 124.526 266.306 125.111C266.88 125.69 267.167 126.437 267.167 127.352C267.167 128.102 266.951 128.773 266.52 129.364C266.093 129.955 265.497 130.42 264.73 130.761C263.963 131.102 263.071 131.273 262.054 131.273C260.718 131.273 259.613 130.983 258.738 130.403C257.863 129.824 257.309 128.977 257.076 127.864L258.985 127.386C259.167 128.091 259.511 128.619 260.017 128.972C260.528 129.324 261.196 129.5 262.02 129.5C262.957 129.5 263.701 129.301 264.253 128.903C264.809 128.5 265.088 128.017 265.088 127.455C265.088 127 264.929 126.619 264.61 126.312C264.292 126 263.804 125.767 263.145 125.614L260.963 125.102C259.764 124.818 258.883 124.378 258.321 123.781C257.764 123.179 257.485 122.426 257.485 121.523C257.485 120.784 257.693 120.131 258.108 119.562C258.528 118.994 259.099 118.548 259.821 118.224C260.548 117.901 261.372 117.739 262.292 117.739C263.588 117.739 264.605 118.023 265.343 118.591C266.088 119.159 266.616 119.909 266.929 120.841Z" fill="#08006E"/>
<path d="M197.545 149.909L192.705 163H190.659L185.818 149.909H188L191.614 160.341H191.75L195.364 149.909H197.545ZM203.894 163.307C203.065 163.307 202.312 163.151 201.636 162.838C200.959 162.52 200.423 162.062 200.025 161.466C199.627 160.864 199.428 160.136 199.428 159.284C199.428 158.534 199.576 157.926 199.871 157.46C200.167 156.989 200.562 156.619 201.056 156.352C201.55 156.085 202.096 155.886 202.692 155.756C203.295 155.619 203.9 155.511 204.508 155.432C205.303 155.33 205.948 155.253 206.442 155.202C206.942 155.145 207.306 155.051 207.533 154.92C207.766 154.79 207.883 154.562 207.883 154.239V154.17C207.883 153.33 207.653 152.676 207.192 152.21C206.738 151.744 206.048 151.511 205.121 151.511C204.161 151.511 203.408 151.722 202.863 152.142C202.317 152.562 201.934 153.011 201.712 153.489L199.803 152.807C200.144 152.011 200.599 151.392 201.167 150.949C201.741 150.5 202.366 150.187 203.042 150.011C203.724 149.83 204.394 149.739 205.053 149.739C205.474 149.739 205.957 149.79 206.502 149.892C207.053 149.989 207.584 150.19 208.096 150.497C208.613 150.804 209.042 151.267 209.383 151.886C209.724 152.506 209.894 153.335 209.894 154.375V163H207.883V161.227H207.78C207.644 161.511 207.417 161.815 207.099 162.139C206.78 162.463 206.357 162.739 205.829 162.966C205.3 163.193 204.655 163.307 203.894 163.307ZM204.201 161.5C204.996 161.5 205.667 161.344 206.212 161.031C206.763 160.719 207.178 160.315 207.457 159.821C207.741 159.327 207.883 158.807 207.883 158.261V156.42C207.798 156.523 207.61 156.616 207.32 156.702C207.036 156.781 206.707 156.852 206.332 156.915C205.962 156.972 205.602 157.023 205.249 157.068C204.903 157.108 204.621 157.142 204.405 157.17C203.883 157.239 203.394 157.349 202.94 157.503C202.491 157.651 202.127 157.875 201.849 158.176C201.576 158.472 201.44 158.875 201.44 159.386C201.44 160.085 201.698 160.614 202.215 160.972C202.738 161.324 203.4 161.5 204.201 161.5ZM213.805 163V149.909H215.748V151.886H215.885C216.123 151.239 216.555 150.713 217.18 150.31C217.805 149.906 218.51 149.705 219.294 149.705C219.442 149.705 219.626 149.707 219.848 149.713C220.069 149.719 220.237 149.727 220.351 149.739V151.784C220.283 151.767 220.126 151.741 219.882 151.707C219.643 151.668 219.391 151.648 219.123 151.648C218.487 151.648 217.919 151.781 217.419 152.048C216.925 152.31 216.533 152.673 216.243 153.139C215.959 153.599 215.817 154.125 215.817 154.716V163H213.805ZM222.975 163V149.909H224.986V163H222.975ZM223.998 147.727C223.606 147.727 223.268 147.594 222.983 147.327C222.705 147.06 222.566 146.739 222.566 146.364C222.566 145.989 222.705 145.668 222.983 145.401C223.268 145.134 223.606 145 223.998 145C224.39 145 224.725 145.134 225.003 145.401C225.287 145.668 225.43 145.989 225.43 146.364C225.43 146.739 225.287 147.06 225.003 147.327C224.725 147.594 224.39 147.727 223.998 147.727ZM234.228 163.273C233.047 163.273 232.01 162.991 231.118 162.429C230.231 161.866 229.538 161.08 229.038 160.068C228.544 159.057 228.297 157.875 228.297 156.523C228.297 155.159 228.544 153.969 229.038 152.952C229.538 151.935 230.231 151.145 231.118 150.582C232.01 150.02 233.047 149.739 234.228 149.739C235.41 149.739 236.444 150.02 237.331 150.582C238.223 151.145 238.916 151.935 239.41 152.952C239.91 153.969 240.16 155.159 240.16 156.523C240.16 157.875 239.91 159.057 239.41 160.068C238.916 161.08 238.223 161.866 237.331 162.429C236.444 162.991 235.41 163.273 234.228 163.273ZM234.228 161.466C235.126 161.466 235.865 161.236 236.444 160.776C237.024 160.315 237.453 159.71 237.731 158.96C238.01 158.21 238.149 157.398 238.149 156.523C238.149 155.648 238.01 154.832 237.731 154.077C237.453 153.321 237.024 152.71 236.444 152.244C235.865 151.778 235.126 151.545 234.228 151.545C233.331 151.545 232.592 151.778 232.013 152.244C231.433 152.71 231.004 153.321 230.726 154.077C230.447 154.832 230.308 155.648 230.308 156.523C230.308 157.398 230.447 158.21 230.726 158.96C231.004 159.71 231.433 160.315 232.013 160.776C232.592 161.236 233.331 161.466 234.228 161.466ZM251.721 157.648V149.909H253.732V163H251.721V160.784H251.584C251.277 161.449 250.8 162.014 250.152 162.48C249.505 162.94 248.687 163.17 247.698 163.17C246.88 163.17 246.152 162.991 245.516 162.634C244.88 162.27 244.38 161.724 244.016 160.997C243.652 160.264 243.471 159.341 243.471 158.227V149.909H245.482V158.091C245.482 159.045 245.749 159.807 246.283 160.375C246.823 160.943 247.51 161.227 248.346 161.227C248.846 161.227 249.354 161.099 249.871 160.844C250.394 160.588 250.831 160.196 251.184 159.668C251.542 159.139 251.721 158.466 251.721 157.648ZM266.929 152.841L265.122 153.352C265.008 153.051 264.841 152.759 264.619 152.474C264.403 152.185 264.108 151.946 263.733 151.759C263.358 151.571 262.878 151.477 262.292 151.477C261.491 151.477 260.824 151.662 260.289 152.031C259.761 152.395 259.497 152.858 259.497 153.42C259.497 153.92 259.679 154.315 260.042 154.605C260.406 154.895 260.974 155.136 261.747 155.33L263.69 155.807C264.86 156.091 265.733 156.526 266.306 157.111C266.88 157.69 267.167 158.437 267.167 159.352C267.167 160.102 266.951 160.773 266.52 161.364C266.093 161.955 265.497 162.42 264.73 162.761C263.963 163.102 263.071 163.273 262.054 163.273C260.718 163.273 259.613 162.983 258.738 162.403C257.863 161.824 257.309 160.977 257.076 159.864L258.985 159.386C259.167 160.091 259.511 160.619 260.017 160.972C260.528 161.324 261.196 161.5 262.02 161.5C262.957 161.5 263.701 161.301 264.253 160.903C264.809 160.5 265.088 160.017 265.088 159.455C265.088 159 264.929 158.619 264.61 158.312C264.292 158 263.804 157.767 263.145 157.614L260.963 157.102C259.764 156.818 258.883 156.378 258.321 155.781C257.764 155.179 257.485 154.426 257.485 153.523C257.485 152.784 257.693 152.131 258.108 151.562C258.528 150.994 259.099 150.548 259.821 150.224C260.548 149.901 261.372 149.739 262.292 149.739C263.588 149.739 264.605 150.023 265.343 150.591C266.088 151.159 266.616 151.909 266.929 152.841Z" fill="#B5777B"/>
</svg>
