<svg width="26" height="16" viewBox="0 0 26 16" fill="none" xmlns="http://www.w3.org/2000/svg">
<g clip-path="url(#clip0_13_293)">
<path d="M22.6345 1.36908H16.5512V2.84527H22.6345V1.36908ZM19.6345 6.44051C18.9202 6.44051 18.3409 6.64884 17.8964 7.06551C17.452 7.48218 17.2059 8.04765 17.1583 8.76194H22.0155C21.8726 7.21432 21.079 6.44051 19.6345 6.44051ZM19.825 13.4048C20.325 13.4048 20.8091 13.2778 21.2774 13.0238C21.7456 12.7699 22.0472 12.4246 22.1821 11.9881H24.8131C24.0194 14.4246 22.325 15.6429 19.7298 15.6429C18.0313 15.6429 16.6802 15.1191 15.6762 14.0715C14.6722 13.0238 14.1702 11.6469 14.1702 9.94051C14.1702 8.28972 14.6881 6.91869 15.7238 5.82742C16.7595 4.73615 18.0948 4.19051 19.7298 4.19051C20.825 4.19051 21.7794 4.46035 22.5929 5.00003C23.4063 5.53972 24.0135 6.25003 24.4143 7.13099C24.8151 8.01194 25.0155 8.99607 25.0155 10.0834C25.0155 10.2183 25.0075 10.4048 24.9917 10.6429H17.1583C17.1583 11.5238 17.3865 12.2044 17.8429 12.6846C18.2992 13.1647 18.9599 13.4048 19.825 13.4048ZM3.93214 12.8096H7.45595C9.08293 12.8096 9.89643 12.1469 9.89643 10.8215C9.89643 9.39289 9.10674 8.67861 7.52738 8.67861H3.93214V12.8096ZM3.93214 6.4167H7.27738C7.89643 6.4167 8.38651 6.27186 8.74762 5.98218C9.10873 5.6925 9.28928 5.2421 9.28928 4.63099C9.28928 3.48813 8.53532 2.9167 7.02738 2.9167H3.93214V6.4167ZM0.634521 0.357178H7.70595C8.39643 0.357178 9.01151 0.412733 9.55119 0.523844C10.0909 0.634956 10.5929 0.823448 11.0571 1.08932C11.5214 1.35519 11.8786 1.73813 12.1286 2.23813C12.3786 2.73813 12.5036 3.34924 12.5036 4.07146C12.5036 5.50797 11.821 6.55162 10.4559 7.20242C11.3607 7.45638 12.0433 7.91273 12.5036 8.57146C12.9639 9.23019 13.194 10.0397 13.194 11C13.194 11.5953 13.0968 12.1369 12.9024 12.625C12.7079 13.1131 12.446 13.5238 12.1167 13.8572C11.7873 14.1905 11.3964 14.4723 10.944 14.7024C10.4917 14.9326 10.0115 15.0992 9.50357 15.2024C8.99563 15.3056 8.46389 15.3572 7.90833 15.3572H0.634521V0.357178Z" fill="#B5777B"/>
</g>
<defs>
<clipPath id="clip0_13_293">
<rect width="24.39" height="16" fill="white" transform="translate(0.630005)"/>
</clipPath>
</defs>
</svg>
