<svg width="17" height="16" viewBox="0 0 17 16" fill="none" xmlns="http://www.w3.org/2000/svg">
<g clip-path="url(#clip0_13_295)">
<path d="M3.73755 5.28724V15.8298H0.226908V5.28724H3.73755ZM3.96095 2.03192C3.96804 2.54965 3.78896 2.98227 3.42372 3.32979C3.05847 3.67731 2.57797 3.85107 1.98223 3.85107H1.96095C1.37939 3.85107 0.911305 3.67731 0.556695 3.32979C0.202085 2.98227 0.0247803 2.54965 0.0247803 2.03192C0.0247803 1.50709 0.207404 1.0727 0.572653 0.728726C0.937901 0.384754 1.41485 0.212769 2.0035 0.212769C2.59216 0.212769 3.06379 0.384754 3.4184 0.728726C3.77301 1.0727 3.95386 1.50709 3.96095 2.03192ZM16.3652 9.78724V15.8298H12.8652V10.1915C12.8652 9.44681 12.7216 8.86348 12.4344 8.44149C12.1471 8.01951 11.6985 7.80851 11.0886 7.80851C10.6418 7.80851 10.2677 7.93085 9.96627 8.17553C9.66485 8.42022 9.43967 8.72341 9.29074 9.08511C9.21272 9.29787 9.17372 9.58511 9.17372 9.94681V15.8298H5.67372C5.6879 13 5.69499 10.7057 5.69499 8.94681C5.69499 7.18795 5.69145 6.1383 5.68435 5.79787L5.67372 5.28724H9.17372V6.81915H9.15244C9.29428 6.5922 9.43967 6.39362 9.58861 6.22341C9.73755 6.05319 9.9379 5.8688 10.1897 5.67022C10.4414 5.47163 10.75 5.31738 11.1152 5.20745C11.4805 5.09752 11.8865 5.04256 12.3333 5.04256C13.5461 5.04256 14.5212 5.44504 15.2588 6.25C15.9964 7.05497 16.3652 8.23404 16.3652 9.78724Z" fill="#B5777B"/>
</g>
<defs>
<clipPath id="clip0_13_295">
<rect width="16.35" height="16" fill="white" transform="translate(0.0200195)"/>
</clipPath>
</defs>
</svg>
